<svg width="818" height="300" viewBox="0 0 818 300" fill="none" xmlns="http://www.w3.org/2000/svg">
<rect width="818" height="300" fill="white"/>
<path d="M260.523 46.0677C260.523 45.2573 260.208 44.4801 259.649 43.9065C259.089 43.3329 258.329 43.0098 257.537 43.0082H240.812C240.019 43.0098 239.26 43.3329 238.7 43.9065C238.14 44.4801 237.826 45.2573 237.826 46.0677V76.5699C228.988 70.5529 218.603 67.3502 207.986 67.3665C178.977 67.3665 155.455 90.7256 155.455 121.073C155.455 151.42 178.977 176.026 207.986 176.026C236.994 176.026 261.13 151.42 261.13 121.073C261.13 117.101 260.523 46.0677 260.523 46.0677ZM207.197 157.024C190.593 157.024 177.139 141.049 177.139 121.333C177.139 101.617 190.593 85.6429 207.197 85.6429C221.762 85.6429 234.84 97.9493 237.826 114.283C238.675 118.943 238.675 123.723 237.826 128.383C234.846 144.723 221.762 157.024 207.197 157.024Z" fill="#00A5B5"/>
<path d="M320.488 158.513C325.452 158.513 329.482 157.955 332.577 156.838C338.451 154.694 341.389 150.712 341.389 144.891C341.427 143.295 341.041 141.718 340.272 140.329C339.502 138.939 338.378 137.79 337.019 137.003C334.102 135.183 329.524 133.576 323.286 132.181L312.635 129.736C302.161 127.316 294.919 124.685 290.909 121.842C284.124 117.097 280.732 109.67 280.732 99.563C280.732 90.3409 284.011 82.687 290.569 76.601C297.128 70.5151 306.759 67.4576 319.462 67.4286C330.071 67.4286 339.121 70.3041 346.614 76.0549C353.087 81.0196 356.902 87.9455 358.059 96.8323C358.136 97.3646 358.098 97.9075 357.95 98.4235C357.801 98.9396 357.545 99.4167 357.199 99.8218C356.853 100.227 356.425 100.551 355.945 100.771C355.465 100.991 354.944 101.102 354.418 101.096H341.377C340.539 101.098 339.726 100.805 339.074 100.266C338.423 99.7267 337.974 98.9743 337.802 98.1356C337.417 95.9432 336.532 93.8741 335.221 92.0954C333.91 90.3167 332.208 88.8781 330.253 87.8958C326.976 86.1706 322.901 85.3079 318.03 85.3079C312.613 85.3079 308.286 86.4271 305.049 88.6653C303.514 89.6582 302.258 91.0439 301.406 92.6852C300.555 94.3266 300.137 96.1668 300.194 98.0239C300.134 99.722 300.553 101.402 301.401 102.863C302.249 104.325 303.49 105.506 304.976 106.265C307.028 107.473 311.399 108.895 318.091 110.529L335.441 114.786C343.047 116.652 348.784 119.145 352.652 122.264C358.664 127.105 361.67 134.113 361.67 143.29C361.67 152.69 358.153 160.501 351.117 166.724C344.081 172.946 334.143 176.049 321.301 176.032C308.185 176.032 297.868 172.969 290.351 166.841C283.841 161.537 280.151 154.504 279.281 145.741C279.222 145.218 279.272 144.687 279.429 144.185C279.585 143.682 279.844 143.219 280.188 142.827C280.532 142.434 280.954 142.121 281.425 141.908C281.897 141.695 282.407 141.586 282.923 141.59H296.11C296.934 141.587 297.734 141.871 298.38 142.394C299.026 142.917 299.48 143.648 299.666 144.469C300.374 147.754 301.461 150.309 302.925 152.133C306.348 156.391 312.202 158.517 320.488 158.513Z" fill="#00A5B5"/>
<path d="M435.144 160.22V169.491C435.145 170.081 435.032 170.664 434.812 171.209C434.593 171.754 434.27 172.249 433.863 172.666C433.456 173.083 432.973 173.414 432.441 173.641C431.909 173.867 431.339 173.984 430.762 173.984H411.78C405.842 173.984 400.148 171.572 395.949 167.279C391.751 162.986 389.392 157.163 389.392 151.091V92.0351C389.39 90.7946 388.908 89.6053 388.05 88.7282C387.192 87.851 386.029 87.3575 384.816 87.3558H373.219C372.054 87.3558 370.936 86.8824 370.112 86.0398C369.288 85.1972 368.825 84.0544 368.825 82.8627V74.193C368.825 73.6033 368.939 73.0193 369.16 72.4745C369.381 71.9298 369.704 71.4349 370.112 71.0181C370.521 70.6014 371.005 70.271 371.538 70.0459C372.071 69.8208 372.642 69.7053 373.219 69.7061H384.938C385.523 69.7062 386.103 69.5881 386.644 69.3588C387.185 69.1295 387.676 68.7934 388.09 68.3698C388.503 67.9461 388.831 67.4432 389.055 66.8899C389.278 66.3365 389.393 65.7435 389.392 65.1448V47.5075C389.392 46.9178 389.506 46.3338 389.727 45.789C389.948 45.2443 390.271 44.7493 390.679 44.3326C391.087 43.9159 391.572 43.5855 392.105 43.3604C392.638 43.1353 393.209 43.0198 393.786 43.0206H405.316C405.893 43.0198 406.464 43.1353 406.996 43.3605C407.529 43.5857 408.013 43.9162 408.421 44.333C408.828 44.7498 409.151 45.2448 409.372 45.7895C409.592 46.3342 409.705 46.9181 409.704 47.5075V146.833C409.704 149.194 410.621 151.457 412.253 153.126C413.885 154.795 416.099 155.733 418.407 155.733H430.762C431.338 155.733 431.909 155.849 432.441 156.074C432.973 156.3 433.456 156.631 433.863 157.047C434.27 157.464 434.592 157.959 434.812 158.503C435.032 159.047 435.145 159.631 435.144 160.22Z" fill="#00A5B5"/>
<path d="M433.93 92.2399C441.37 92.2399 447.402 86.0716 447.402 78.4627C447.402 70.8538 441.37 64.6855 433.93 64.6855C426.489 64.6855 420.457 70.8538 420.457 78.4627C420.457 86.0716 426.489 92.2399 433.93 92.2399Z" fill="#FF9015"/>
<path d="M482.261 99.8732C481.325 102.218 480.647 104.661 480.24 107.159C479.77 110.153 479.545 113.181 479.567 116.213V170.267C479.565 171.338 479.148 172.365 478.408 173.122C477.667 173.879 476.663 174.305 475.616 174.307H461.658C460.61 174.307 459.605 173.881 458.864 173.124C458.123 172.366 457.707 171.339 457.707 170.267V73.7028C457.707 73.1725 457.809 72.6475 458.008 72.1576C458.206 71.6678 458.498 71.2229 458.865 70.8482C459.231 70.4735 459.667 70.1765 460.146 69.9742C460.626 69.7718 461.139 69.6681 461.658 69.6689H475.379C476.426 69.6689 477.43 70.0937 478.171 70.85C478.911 71.6063 479.328 72.6324 479.33 73.7028V82.8379C483.339 77.7648 488.423 73.6903 494.198 70.9225C495.369 70.3702 516.197 60.993 534.943 73.771C538.211 76.0031 541.134 78.7224 543.616 81.8387C549.519 89.3739 552.706 98.7576 552.64 108.413V170.255C552.64 171.326 552.224 172.354 551.483 173.111C550.742 173.869 549.737 174.295 548.689 174.295H534.537C533.49 174.293 532.486 173.867 531.745 173.11C531.005 172.352 530.588 171.326 530.586 170.255V109.027C530.21 106.42 528.383 95.9945 519.778 90.2168C502.634 80.4796 485.726 91.3835 482.261 99.8732Z" fill="#00A5B5"/>
<path d="M614.643 148.081L642.22 73.4048C642.563 72.4805 643.172 71.6847 643.968 71.1228C644.763 70.5609 645.707 70.2595 646.674 70.2584H659.989C660.495 70.2582 660.993 70.3851 661.44 70.628C661.887 70.8709 662.268 71.2222 662.551 71.6513C662.834 72.0803 663.009 72.5738 663.062 73.0884C663.115 73.603 663.043 74.123 662.853 74.6026L622.612 176.684C616.252 193.881 607.403 219.145 576.489 221.652C575.835 221.703 575.178 221.616 574.558 221.395C573.939 221.174 573.37 220.824 572.889 220.368C572.408 219.911 572.025 219.358 571.763 218.743C571.501 218.128 571.366 217.464 571.367 216.793V205.206C571.368 203.996 571.81 202.829 572.607 201.934C573.403 201.039 574.498 200.48 575.676 200.366C580.744 199.869 589.258 196.53 595.527 188.543C597.876 185.552 601.705 174.102 601.45 173.308L563.187 75.1735C562.975 74.6298 562.896 74.0413 562.958 73.4594C563.019 72.8774 563.219 72.3197 563.54 71.835C563.861 71.3502 564.293 70.9531 564.798 70.6783C565.304 70.4035 565.867 70.2594 566.44 70.2584H582.279C583.256 70.2595 584.21 70.5679 585.01 71.1419C585.81 71.7158 586.418 72.5275 586.752 73.4669L613.199 148.044C613.25 148.196 613.345 148.328 613.472 148.423C613.599 148.518 613.751 148.571 613.909 148.575C614.066 148.58 614.22 148.534 614.352 148.446C614.483 148.357 614.585 148.23 614.643 148.081Z" fill="#00A5B5"/>
<path d="M278.352 240H269.876V213.818H278.621C281.186 213.818 283.389 214.342 285.23 215.391C287.071 216.43 288.482 217.926 289.462 219.878C290.45 221.821 290.945 224.152 290.945 226.871C290.945 229.598 290.446 231.942 289.449 233.902C288.46 235.862 287.028 237.371 285.153 238.428C283.278 239.476 281.011 240 278.352 240ZM273.827 236.548H278.135C280.129 236.548 281.787 236.173 283.108 235.423C284.429 234.665 285.418 233.57 286.074 232.138C286.73 230.697 287.058 228.942 287.058 226.871C287.058 224.817 286.73 223.074 286.074 221.642C285.426 220.21 284.459 219.124 283.172 218.382C281.885 217.641 280.287 217.27 278.378 217.27H273.827V236.548ZM295.137 240V213.818H311.552V217.219H299.087V225.196H310.695V228.584H299.087V236.599H311.705V240H295.137ZM330.388 220.696C330.252 219.486 329.689 218.548 328.701 217.884C327.712 217.21 326.468 216.874 324.968 216.874C323.894 216.874 322.965 217.044 322.181 217.385C321.397 217.717 320.787 218.178 320.353 218.766C319.926 219.345 319.713 220.006 319.713 220.747C319.713 221.369 319.858 221.906 320.148 222.358C320.446 222.81 320.834 223.189 321.311 223.496C321.797 223.794 322.317 224.045 322.871 224.25C323.425 224.446 323.958 224.608 324.469 224.736L327.026 225.401C327.861 225.605 328.718 225.882 329.596 226.232C330.473 226.581 331.287 227.041 332.037 227.612C332.787 228.183 333.392 228.891 333.853 229.734C334.321 230.578 334.556 231.588 334.556 232.764C334.556 234.247 334.172 235.564 333.405 236.714C332.647 237.865 331.543 238.773 330.094 239.438C328.654 240.102 326.911 240.435 324.865 240.435C322.905 240.435 321.209 240.124 319.777 239.501C318.346 238.879 317.225 237.997 316.415 236.855C315.605 235.705 315.158 234.341 315.073 232.764H319.036C319.113 233.71 319.419 234.499 319.956 235.129C320.502 235.751 321.196 236.216 322.04 236.523C322.892 236.821 323.826 236.97 324.84 236.97C325.956 236.97 326.949 236.795 327.819 236.446C328.696 236.088 329.387 235.594 329.89 234.963C330.392 234.324 330.644 233.578 330.644 232.726C330.644 231.95 330.422 231.315 329.979 230.821C329.544 230.327 328.952 229.918 328.202 229.594C327.461 229.27 326.621 228.984 325.684 228.737L322.59 227.893C320.493 227.322 318.831 226.483 317.604 225.375C316.385 224.267 315.776 222.801 315.776 220.977C315.776 219.469 316.185 218.152 317.003 217.027C317.821 215.902 318.929 215.028 320.327 214.406C321.725 213.776 323.301 213.46 325.057 213.46C326.83 213.46 328.394 213.771 329.749 214.393C331.113 215.016 332.186 215.872 332.971 216.963C333.755 218.045 334.164 219.29 334.198 220.696H330.388ZM342.507 213.818V240H338.556V213.818H342.507ZM365.258 222.089C365.011 221.314 364.679 220.619 364.261 220.006C363.852 219.384 363.362 218.855 362.791 218.42C362.22 217.977 361.568 217.641 360.835 217.411C360.11 217.18 359.314 217.065 358.444 217.065C356.97 217.065 355.64 217.445 354.456 218.203C353.271 218.962 352.333 220.074 351.643 221.54C350.961 222.997 350.62 224.783 350.62 226.896C350.62 229.018 350.966 230.812 351.656 232.278C352.346 233.744 353.292 234.857 354.494 235.615C355.696 236.374 357.064 236.753 358.598 236.753C360.021 236.753 361.261 236.463 362.318 235.884C363.383 235.304 364.206 234.486 364.785 233.429C365.373 232.364 365.667 231.111 365.667 229.67L366.69 229.862H359.198V226.602H369.49V229.581C369.49 231.78 369.021 233.689 368.083 235.308C367.154 236.919 365.868 238.163 364.223 239.041C362.586 239.919 360.711 240.358 358.598 240.358C356.228 240.358 354.149 239.812 352.359 238.722C350.578 237.631 349.189 236.084 348.191 234.081C347.194 232.07 346.696 229.683 346.696 226.922C346.696 224.834 346.985 222.959 347.565 221.297C348.145 219.635 348.958 218.224 350.007 217.065C351.064 215.898 352.304 215.007 353.727 214.393C355.159 213.771 356.723 213.46 358.419 213.46C359.833 213.46 361.15 213.669 362.369 214.087C363.596 214.504 364.687 215.097 365.642 215.864C366.605 216.631 367.402 217.543 368.032 218.599C368.663 219.648 369.089 220.811 369.311 222.089H365.258ZM394.916 213.818V240H391.286L377.977 220.798H377.735V240H373.784V213.818H377.44L390.762 233.045H391.004V213.818H394.916ZM423.046 220.696C422.91 219.486 422.347 218.548 421.358 217.884C420.37 217.21 419.125 216.874 417.625 216.874C416.552 216.874 415.623 217.044 414.839 217.385C414.054 217.717 413.445 218.178 413.01 218.766C412.584 219.345 412.371 220.006 412.371 220.747C412.371 221.369 412.516 221.906 412.806 222.358C413.104 222.81 413.492 223.189 413.969 223.496C414.455 223.794 414.975 224.045 415.529 224.25C416.083 224.446 416.616 224.608 417.127 224.736L419.684 225.401C420.519 225.605 421.375 225.882 422.253 226.232C423.131 226.581 423.945 227.041 424.695 227.612C425.445 228.183 426.05 228.891 426.51 229.734C426.979 230.578 427.214 231.588 427.214 232.764C427.214 234.247 426.83 235.564 426.063 236.714C425.304 237.865 424.201 238.773 422.752 239.438C421.312 240.102 419.569 240.435 417.523 240.435C415.563 240.435 413.867 240.124 412.435 239.501C411.003 238.879 409.883 237.997 409.073 236.855C408.263 235.705 407.816 234.341 407.731 232.764H411.694C411.77 233.71 412.077 234.499 412.614 235.129C413.16 235.751 413.854 236.216 414.698 236.523C415.55 236.821 416.483 236.97 417.498 236.97C418.614 236.97 419.607 236.795 420.476 236.446C421.354 236.088 422.045 235.594 422.547 234.963C423.05 234.324 423.302 233.578 423.302 232.726C423.302 231.95 423.08 231.315 422.637 230.821C422.202 230.327 421.61 229.918 420.86 229.594C420.118 229.27 419.279 228.984 418.341 228.737L415.248 227.893C413.151 227.322 411.489 226.483 410.262 225.375C409.043 224.267 408.434 222.801 408.434 220.977C408.434 219.469 408.843 218.152 409.661 217.027C410.479 215.902 411.587 215.028 412.985 214.406C414.383 213.776 415.959 213.46 417.715 213.46C419.488 213.46 421.052 213.771 422.407 214.393C423.77 215.016 424.844 215.872 425.628 216.963C426.412 218.045 426.822 219.29 426.856 220.696H423.046ZM429.194 213.818H433.681L440.521 225.72H440.802L447.642 213.818H452.129L442.63 229.722V240H438.693V229.722L429.194 213.818ZM469.418 220.696C469.282 219.486 468.72 218.548 467.731 217.884C466.742 217.21 465.498 216.874 463.998 216.874C462.924 216.874 461.995 217.044 461.211 217.385C460.427 217.717 459.818 218.178 459.383 218.766C458.957 219.345 458.744 220.006 458.744 220.747C458.744 221.369 458.889 221.906 459.178 222.358C459.477 222.81 459.864 223.189 460.342 223.496C460.828 223.794 461.347 224.045 461.901 224.25C462.455 224.446 462.988 224.608 463.499 224.736L466.056 225.401C466.891 225.605 467.748 225.882 468.626 226.232C469.504 226.581 470.318 227.041 471.068 227.612C471.818 228.183 472.423 228.891 472.883 229.734C473.352 230.578 473.586 231.588 473.586 232.764C473.586 234.247 473.203 235.564 472.435 236.714C471.677 237.865 470.573 238.773 469.124 239.438C467.684 240.102 465.941 240.435 463.896 240.435C461.935 240.435 460.239 240.124 458.808 239.501C457.376 238.879 456.255 237.997 455.445 236.855C454.636 235.705 454.188 234.341 454.103 232.764H458.066C458.143 233.71 458.45 234.499 458.987 235.129C459.532 235.751 460.227 236.216 461.07 236.523C461.923 236.821 462.856 236.97 463.87 236.97C464.987 236.97 465.98 236.795 466.849 236.446C467.727 236.088 468.417 235.594 468.92 234.963C469.423 234.324 469.674 233.578 469.674 232.726C469.674 231.95 469.453 231.315 469.009 230.821C468.575 230.327 467.982 229.918 467.232 229.594C466.491 229.27 465.651 228.984 464.714 228.737L461.62 227.893C459.524 227.322 457.862 226.483 456.634 225.375C455.416 224.267 454.806 222.801 454.806 220.977C454.806 219.469 455.215 218.152 456.033 217.027C456.852 215.902 457.96 215.028 459.357 214.406C460.755 213.776 462.332 213.46 464.087 213.46C465.86 213.46 467.424 213.771 468.779 214.393C470.143 215.016 471.217 215.872 472.001 216.963C472.785 218.045 473.194 219.29 473.228 220.696H469.418ZM476.295 217.219V213.818H496.558V217.219H488.389V240H484.452V217.219H476.295ZM500.316 240V213.818H516.731V217.219H504.266V225.196H515.874V228.584H504.266V236.599H516.884V240H500.316ZM521.287 213.818H526.081L534.416 234.17H534.723L543.059 213.818H547.853V240H544.094V221.054H543.851L536.13 239.962H533.01L525.289 221.041H525.046V240H521.287V213.818Z" fill="#00496B"/>
</svg>
